<mxfile host="app.diagrams.net" agent="Mozilla/5.0 (Windows NT 10.0; Win64; x64) AppleWebKit/537.36 (KHTML, like Gecko) Chrome/140.0.0.0 Safari/537.36" version="28.2.0">
  <diagram name="PÃ¡gina-1" id="oGamcXmMoIbd5VSTp82N">
    <mxGraphModel dx="1932" dy="473" grid="1" gridSize="10" guides="1" tooltips="1" connect="1" arrows="1" fold="1" page="1" pageScale="1" pageWidth="827" pageHeight="1169" math="0" shadow="0">
      <root>
        <mxCell id="0" />
        <mxCell id="1" parent="0" />
        <mxCell id="LKhaDl4wkM7VXUCBA-Da-11" style="edgeStyle=none;shape=connector;rounded=0;orthogonalLoop=1;jettySize=auto;html=1;exitX=0.5;exitY=0;exitDx=0;exitDy=0;strokeColor=default;align=center;verticalAlign=middle;fontFamily=Helvetica;fontSize=11;fontColor=default;labelBackgroundColor=default;endArrow=none;" edge="1" parent="1" source="LKhaDl4wkM7VXUCBA-Da-1">
          <mxGeometry relative="1" as="geometry">
            <mxPoint x="160" y="50" as="targetPoint" />
          </mxGeometry>
        </mxCell>
        <mxCell id="LKhaDl4wkM7VXUCBA-Da-13" style="edgeStyle=none;shape=connector;rounded=0;orthogonalLoop=1;jettySize=auto;html=1;exitX=0.5;exitY=0;exitDx=0;exitDy=0;entryX=0.5;entryY=1;entryDx=0;entryDy=0;strokeColor=default;align=center;verticalAlign=middle;fontFamily=Helvetica;fontSize=11;fontColor=default;labelBackgroundColor=default;endArrow=none;" edge="1" parent="1" source="LKhaDl4wkM7VXUCBA-Da-1" target="LKhaDl4wkM7VXUCBA-Da-12">
          <mxGeometry relative="1" as="geometry" />
        </mxCell>
        <mxCell id="LKhaDl4wkM7VXUCBA-Da-33" style="edgeStyle=none;shape=connector;rounded=0;orthogonalLoop=1;jettySize=auto;html=1;exitX=1;exitY=0.5;exitDx=0;exitDy=0;entryX=0;entryY=0.5;entryDx=0;entryDy=0;strokeColor=default;align=center;verticalAlign=middle;fontFamily=Helvetica;fontSize=11;fontColor=default;labelBackgroundColor=default;endArrow=none;" edge="1" parent="1" source="LKhaDl4wkM7VXUCBA-Da-34" target="LKhaDl4wkM7VXUCBA-Da-2">
          <mxGeometry relative="1" as="geometry" />
        </mxCell>
        <mxCell id="LKhaDl4wkM7VXUCBA-Da-1" value="Camionero" style="whiteSpace=wrap;html=1;align=center;" vertex="1" parent="1">
          <mxGeometry x="110" y="120" width="100" height="40" as="geometry" />
        </mxCell>
        <mxCell id="LKhaDl4wkM7VXUCBA-Da-2" value="Paquete" style="whiteSpace=wrap;html=1;align=center;" vertex="1" parent="1">
          <mxGeometry x="490" y="120" width="100" height="40" as="geometry" />
        </mxCell>
        <mxCell id="LKhaDl4wkM7VXUCBA-Da-7" value="" style="endArrow=none;html=1;rounded=0;exitX=0.5;exitY=1;exitDx=0;exitDy=0;entryX=0.5;entryY=0;entryDx=0;entryDy=0;" edge="1" parent="1" source="LKhaDl4wkM7VXUCBA-Da-14" target="LKhaDl4wkM7VXUCBA-Da-1">
          <mxGeometry relative="1" as="geometry">
            <mxPoint x="67.5" y="50" as="sourcePoint" />
            <mxPoint x="490" y="50" as="targetPoint" />
          </mxGeometry>
        </mxCell>
        <mxCell id="LKhaDl4wkM7VXUCBA-Da-12" value="fechaDeNacimiento" style="ellipse;whiteSpace=wrap;html=1;align=center;" vertex="1" parent="1">
          <mxGeometry x="210" y="20" width="120" height="30" as="geometry" />
        </mxCell>
        <mxCell id="LKhaDl4wkM7VXUCBA-Da-14" value="dni" style="ellipse;whiteSpace=wrap;html=1;align=center;fontStyle=4;fontFamily=Helvetica;fontSize=11;fontColor=default;labelBackgroundColor=default;" vertex="1" parent="1">
          <mxGeometry x="30" y="20" width="60" height="30" as="geometry" />
        </mxCell>
        <mxCell id="LKhaDl4wkM7VXUCBA-Da-15" value="edad" style="ellipse;whiteSpace=wrap;html=1;align=center;dashed=1;fontFamily=Helvetica;fontSize=11;fontColor=default;labelBackgroundColor=default;" vertex="1" parent="1">
          <mxGeometry x="130" y="20" width="60" height="30" as="geometry" />
        </mxCell>
        <mxCell id="LKhaDl4wkM7VXUCBA-Da-17" style="edgeStyle=none;shape=connector;rounded=0;orthogonalLoop=1;jettySize=auto;html=1;exitX=0.5;exitY=1;exitDx=0;exitDy=0;entryX=0;entryY=0.25;entryDx=0;entryDy=0;strokeColor=default;align=center;verticalAlign=middle;fontFamily=Helvetica;fontSize=11;fontColor=default;labelBackgroundColor=default;endArrow=none;" edge="1" parent="1" source="LKhaDl4wkM7VXUCBA-Da-16" target="LKhaDl4wkM7VXUCBA-Da-1">
          <mxGeometry relative="1" as="geometry" />
        </mxCell>
        <mxCell id="LKhaDl4wkM7VXUCBA-Da-16" value="telefono" style="ellipse;shape=doubleEllipse;margin=3;whiteSpace=wrap;html=1;align=center;fontFamily=Helvetica;fontSize=11;fontColor=default;labelBackgroundColor=default;" vertex="1" parent="1">
          <mxGeometry x="-80" y="40" width="80" height="30" as="geometry" />
        </mxCell>
        <mxCell id="LKhaDl4wkM7VXUCBA-Da-20" style="edgeStyle=none;shape=connector;rounded=0;orthogonalLoop=1;jettySize=auto;html=1;exitX=1;exitY=1;exitDx=0;exitDy=0;entryX=0;entryY=0.25;entryDx=0;entryDy=0;strokeColor=default;align=center;verticalAlign=middle;fontFamily=Helvetica;fontSize=11;fontColor=default;labelBackgroundColor=default;endArrow=none;" edge="1" parent="1" source="LKhaDl4wkM7VXUCBA-Da-18" target="LKhaDl4wkM7VXUCBA-Da-1">
          <mxGeometry relative="1" as="geometry" />
        </mxCell>
        <mxCell id="LKhaDl4wkM7VXUCBA-Da-18" value="direccion" style="ellipse;whiteSpace=wrap;html=1;align=center;" vertex="1" parent="1">
          <mxGeometry x="-90" y="90" width="70" height="30" as="geometry" />
        </mxCell>
        <mxCell id="LKhaDl4wkM7VXUCBA-Da-21" style="edgeStyle=none;shape=connector;rounded=0;orthogonalLoop=1;jettySize=auto;html=1;exitX=1;exitY=0.5;exitDx=0;exitDy=0;entryX=0;entryY=0.25;entryDx=0;entryDy=0;strokeColor=default;align=center;verticalAlign=middle;fontFamily=Helvetica;fontSize=11;fontColor=default;labelBackgroundColor=default;endArrow=none;" edge="1" parent="1" source="LKhaDl4wkM7VXUCBA-Da-19" target="LKhaDl4wkM7VXUCBA-Da-1">
          <mxGeometry relative="1" as="geometry" />
        </mxCell>
        <mxCell id="LKhaDl4wkM7VXUCBA-Da-19" value="salario" style="ellipse;whiteSpace=wrap;html=1;align=center;" vertex="1" parent="1">
          <mxGeometry x="-40" y="140" width="70" height="30" as="geometry" />
        </mxCell>
        <mxCell id="LKhaDl4wkM7VXUCBA-Da-23" style="edgeStyle=none;shape=connector;rounded=0;orthogonalLoop=1;jettySize=auto;html=1;exitX=1;exitY=0.5;exitDx=0;exitDy=0;entryX=0;entryY=0.5;entryDx=0;entryDy=0;strokeColor=default;align=center;verticalAlign=middle;fontFamily=Helvetica;fontSize=11;fontColor=default;labelBackgroundColor=default;endArrow=none;" edge="1" parent="1" source="LKhaDl4wkM7VXUCBA-Da-22" target="LKhaDl4wkM7VXUCBA-Da-18">
          <mxGeometry relative="1" as="geometry" />
        </mxCell>
        <mxCell id="LKhaDl4wkM7VXUCBA-Da-22" value="poblacion" style="ellipse;whiteSpace=wrap;html=1;align=center;" vertex="1" parent="1">
          <mxGeometry x="-200" y="80" width="70" height="30" as="geometry" />
        </mxCell>
        <mxCell id="LKhaDl4wkM7VXUCBA-Da-25" style="edgeStyle=none;shape=connector;rounded=0;orthogonalLoop=1;jettySize=auto;html=1;exitX=0.5;exitY=1;exitDx=0;exitDy=0;entryX=0.5;entryY=0;entryDx=0;entryDy=0;strokeColor=default;align=center;verticalAlign=middle;fontFamily=Helvetica;fontSize=11;fontColor=default;labelBackgroundColor=default;endArrow=none;" edge="1" parent="1" source="LKhaDl4wkM7VXUCBA-Da-24" target="LKhaDl4wkM7VXUCBA-Da-2">
          <mxGeometry relative="1" as="geometry" />
        </mxCell>
        <mxCell id="LKhaDl4wkM7VXUCBA-Da-24" value="codPaquete" style="ellipse;whiteSpace=wrap;html=1;align=center;" vertex="1" parent="1">
          <mxGeometry x="380" y="30" width="90" height="30" as="geometry" />
        </mxCell>
        <mxCell id="LKhaDl4wkM7VXUCBA-Da-27" style="edgeStyle=none;shape=connector;rounded=0;orthogonalLoop=1;jettySize=auto;html=1;exitX=0.5;exitY=1;exitDx=0;exitDy=0;strokeColor=default;align=center;verticalAlign=middle;fontFamily=Helvetica;fontSize=11;fontColor=default;labelBackgroundColor=default;endArrow=none;" edge="1" parent="1" source="LKhaDl4wkM7VXUCBA-Da-26" target="LKhaDl4wkM7VXUCBA-Da-2">
          <mxGeometry relative="1" as="geometry" />
        </mxCell>
        <mxCell id="LKhaDl4wkM7VXUCBA-Da-26" value="descripcion" style="ellipse;whiteSpace=wrap;html=1;align=center;" vertex="1" parent="1">
          <mxGeometry x="500" y="30" width="80" height="30" as="geometry" />
        </mxCell>
        <mxCell id="LKhaDl4wkM7VXUCBA-Da-29" style="edgeStyle=none;shape=connector;rounded=0;orthogonalLoop=1;jettySize=auto;html=1;exitX=0;exitY=1;exitDx=0;exitDy=0;entryX=0.5;entryY=0;entryDx=0;entryDy=0;strokeColor=default;align=center;verticalAlign=middle;fontFamily=Helvetica;fontSize=11;fontColor=default;labelBackgroundColor=default;endArrow=none;" edge="1" parent="1" source="LKhaDl4wkM7VXUCBA-Da-28" target="LKhaDl4wkM7VXUCBA-Da-2">
          <mxGeometry relative="1" as="geometry" />
        </mxCell>
        <mxCell id="LKhaDl4wkM7VXUCBA-Da-32" style="edgeStyle=none;shape=connector;rounded=0;orthogonalLoop=1;jettySize=auto;html=1;exitX=1;exitY=0;exitDx=0;exitDy=0;entryX=0.5;entryY=1;entryDx=0;entryDy=0;strokeColor=default;align=center;verticalAlign=middle;fontFamily=Helvetica;fontSize=11;fontColor=default;labelBackgroundColor=default;endArrow=none;" edge="1" parent="1" source="LKhaDl4wkM7VXUCBA-Da-28" target="LKhaDl4wkM7VXUCBA-Da-31">
          <mxGeometry relative="1" as="geometry" />
        </mxCell>
        <mxCell id="LKhaDl4wkM7VXUCBA-Da-28" value="destinatario" style="ellipse;whiteSpace=wrap;html=1;align=center;" vertex="1" parent="1">
          <mxGeometry x="630" y="60" width="80" height="30" as="geometry" />
        </mxCell>
        <mxCell id="LKhaDl4wkM7VXUCBA-Da-31" value="direccion" style="ellipse;whiteSpace=wrap;html=1;align=center;" vertex="1" parent="1">
          <mxGeometry x="710" y="10" width="80" height="30" as="geometry" />
        </mxCell>
        <mxCell id="LKhaDl4wkM7VXUCBA-Da-35" value="" style="edgeStyle=none;shape=connector;rounded=0;orthogonalLoop=1;jettySize=auto;html=1;exitX=1;exitY=0.5;exitDx=0;exitDy=0;entryX=0;entryY=0.5;entryDx=0;entryDy=0;strokeColor=default;align=center;verticalAlign=middle;fontFamily=Helvetica;fontSize=11;fontColor=default;labelBackgroundColor=default;endArrow=none;" edge="1" parent="1" source="LKhaDl4wkM7VXUCBA-Da-1" target="LKhaDl4wkM7VXUCBA-Da-34">
          <mxGeometry relative="1" as="geometry">
            <mxPoint x="210" y="140" as="sourcePoint" />
            <mxPoint x="490" y="140" as="targetPoint" />
          </mxGeometry>
        </mxCell>
        <mxCell id="LKhaDl4wkM7VXUCBA-Da-34" value="Distribuye" style="shape=rhombus;perimeter=rhombusPerimeter;whiteSpace=wrap;html=1;align=center;fontFamily=Helvetica;fontSize=11;fontColor=default;labelBackgroundColor=default;" vertex="1" parent="1">
          <mxGeometry x="300" y="120" width="66" height="40" as="geometry" />
        </mxCell>
        <mxCell id="LKhaDl4wkM7VXUCBA-Da-36" value="N" style="text;strokeColor=none;fillColor=none;spacingLeft=4;spacingRight=4;overflow=hidden;rotatable=0;points=[[0,0.5],[1,0.5]];portConstraint=eastwest;fontSize=11;whiteSpace=wrap;html=1;fontFamily=Helvetica;fontColor=default;labelBackgroundColor=default;" vertex="1" parent="1">
          <mxGeometry x="470" y="120" width="40" height="30" as="geometry" />
        </mxCell>
        <mxCell id="LKhaDl4wkM7VXUCBA-Da-39" value="N" style="text;strokeColor=none;fillColor=none;spacingLeft=4;spacingRight=4;overflow=hidden;rotatable=0;points=[[0,0.5],[1,0.5]];portConstraint=eastwest;fontSize=11;whiteSpace=wrap;html=1;fontFamily=Helvetica;fontColor=default;labelBackgroundColor=default;" vertex="1" parent="1">
          <mxGeometry x="470" y="120" width="40" height="30" as="geometry" />
        </mxCell>
        <mxCell id="LKhaDl4wkM7VXUCBA-Da-40" value="1" style="text;strokeColor=none;fillColor=none;spacingLeft=4;spacingRight=4;overflow=hidden;rotatable=0;points=[[0,0.5],[1,0.5]];portConstraint=eastwest;fontSize=11;whiteSpace=wrap;html=1;fontFamily=Helvetica;fontColor=default;labelBackgroundColor=default;" vertex="1" parent="1">
          <mxGeometry x="210" y="120" width="40" height="30" as="geometry" />
        </mxCell>
      </root>
    </mxGraphModel>
  </diagram>
</mxfile>
